<svg width="41" height="45" viewBox="0 0 41 45" fill="none" xmlns="http://www.w3.org/2000/svg">
<path fill-rule="evenodd" clip-rule="evenodd" d="M6.56 0.818182C6.94715 0.303124 7.55475 0 8.2 0H32.8C33.4453 0 34.0528 0.303124 34.44 0.818182L40.59 9C40.8561 9.35406 41 9.7847 41 10.2273V38.8636C41 40.4911 40.3521 42.0519 39.1987 43.2027C38.0454 44.3535 36.4811 45 34.85 45H6.15C4.51892 45 2.95464 44.3535 1.80129 43.2027C0.647945 42.0519 0 40.4911 0 38.8636V10.2273C0 9.7847 0.143865 9.35406 0.41 9L6.56 0.818182ZM9.225 4.09091L4.1 10.9091V38.8636C4.1 39.4061 4.31598 39.9264 4.70043 40.31C5.08488 40.6936 5.60631 40.9091 6.15 40.9091H34.85C35.3937 40.9091 35.9151 40.6936 36.2996 40.31C36.684 39.9264 36.9 39.4061 36.9 38.8636V10.9091L31.775 4.09091H9.225Z" fill="white"/>
</svg>
