<svg width="21" height="11" viewBox="0 0 21 11" fill="none" xmlns="http://www.w3.org/2000/svg">
<path fill-rule="evenodd" clip-rule="evenodd" d="M2.1 0C3.2598 0 4.2 0.820811 4.2 1.83333C4.2 3.29202 4.86375 4.69097 6.04523 5.72242C7.22671 6.75387 8.82913 7.33333 10.5 7.33333C12.1709 7.33333 13.7733 6.75387 14.9548 5.72242C16.1363 4.69097 16.8 3.29202 16.8 1.83333C16.8 0.820811 17.7402 0 18.9 0C20.0598 0 21 0.820811 21 1.83333C21 4.26448 19.8938 6.59606 17.9246 8.31515C15.9555 10.0342 13.2848 11 10.5 11C7.71523 11 5.04451 10.0342 3.07538 8.31515C1.10625 6.59606 0 4.26448 0 1.83333C0 0.820811 0.940202 0 2.1 0Z" fill="white"/>
</svg>
